# Blender v2.90.1 OBJ File: ''
# www.blender.org
mtllib cheese2.mtl
o 立方体
v -1.642094 -1.154294 2.479564
v -1.652329 -1.119747 2.519525
v -1.745908 -1.119747 2.499936
v -1.652329 0.811160 2.519525
v -1.642094 0.845706 2.479564
v -1.745908 0.811160 2.499936
v -1.642094 -1.154294 0.589400
v -1.745908 -1.119747 0.569029
v -1.652329 -1.119747 0.549440
v -1.642094 0.845706 0.589400
v -1.652329 0.811160 0.549440
v -1.745908 0.811160 0.569029
v 4.160349 -1.154294 1.552119
v 4.264163 -1.119747 1.539304
v 4.170584 -1.119747 1.588808
v 4.160349 0.845706 1.552119
v 4.170584 0.811160 1.588808
v 4.264163 0.811160 1.539304
v 4.160349 -1.154294 1.516845
v 4.170584 -1.119747 1.480156
v 4.264163 -1.119747 1.529660
v 4.160349 0.845706 1.516845
v 4.264163 0.811160 1.529660
v 4.170584 0.811160 1.480156
vt 0.379318 0.753893
vt 0.620682 0.753893
vt 0.620682 0.996107
vt 0.379318 0.996107
vt 0.379318 0.609689
vt 0.620682 0.609689
vt 0.620682 0.640311
vt 0.379318 0.640311
vt 0.629318 0.578836
vt 0.870682 0.505447
vt 0.870682 0.744553
vt 0.629318 0.671164
vt 0.379318 0.004318
vt 0.620682 0.004318
vt 0.620682 0.245682
vt 0.379318 0.245682
vt 0.379318 0.253893
vt 0.620682 0.253893
vt 0.620682 0.496107
vt 0.379318 0.496107
vt 0.129318 0.744553
vt 0.128893 0.750000
vt 0.125000 0.745682
vt 0.625000 0.993812
vt 0.620682 1.000000
vt 0.129318 0.505447
vt 0.125000 0.504318
vt 0.128893 0.500000
vt 0.625000 0.243135
vt 0.620682 0.250000
vt 0.620682 0.250000
vt 0.370682 0.671164
vt 0.375000 0.640311
vt 0.371107 0.750000
vt 0.625000 0.752449
vt 0.625000 0.753893
vt 0.620682 0.750000
vt 0.370682 0.578836
vt 0.371107 0.500000
vt 0.375000 0.609689
vt 0.625000 0.497551
vt 0.620682 0.500000
vt 0.625000 0.496107
vt 0.379318 0.000000
vt 0.620682 0.000000
vt 0.625000 0.006865
vt 0.625000 0.256188
vn 0.1578 0.0000 0.9875
vn 1.0000 0.0000 0.0000
vn 0.0000 1.0000 0.0000
vn -1.0000 0.0000 0.0000
vn 0.1578 0.0000 -0.9875
vn -0.1316 -0.7663 0.6288
vn -0.1316 0.7663 0.6288
vn -0.1316 -0.7663 -0.6288
vn -0.1316 0.7663 -0.6288
vn 0.3181 -0.7329 0.6014
vn 0.3181 0.7329 0.6014
vn 0.3181 -0.7329 -0.6014
vn 0.3181 0.7329 -0.6014
vn -0.3158 -0.9488 0.0000
vn -0.2049 0.0000 0.9788
vn -0.3158 0.9488 0.0000
vn -0.2049 0.0000 -0.9788
vn 0.1064 -0.7386 -0.6657
vn 0.1064 0.7386 -0.6657
vn 0.4676 0.0000 -0.8839
vn 0.3158 -0.9488 0.0000
vn 0.3158 0.9488 0.0000
vn 0.4676 0.0000 0.8839
vn 0.1064 -0.7386 0.6657
vn 0.1064 0.7386 0.6657
vn 0.0000 -1.0000 0.0000
g 立方体_立方体_マテリアル
usemtl マテリアル
s off
f 15/1/1 17/2/1 4/3/1 2/4/1
f 21/5/2 23/6/2 18/7/2 14/8/2
f 22/9/3 10/10/3 5/11/3 16/12/3
f 3/13/4 6/14/4 12/15/4 8/16/4
f 9/17/5 11/18/5 24/19/5 20/20/5
f 1/21/6 2/22/6 3/23/6
f 4/3/7 5/24/7 6/25/7
f 7/26/8 8/27/8 9/28/8
f 10/29/9 11/30/9 12/31/9
f 13/32/10 14/33/10 15/34/10
f 16/35/11 17/36/11 18/37/11
f 19/38/12 20/39/12 21/40/12
f 22/41/13 23/42/13 24/43/13
f 7/26/14 1/21/14 3/23/14 8/27/14
f 2/44/15 4/45/15 6/14/15 3/13/15
f 5/46/16 10/29/16 12/15/16 6/14/16
f 11/18/17 9/17/17 8/16/17 12/15/17
f 19/38/18 7/26/18 9/28/18 20/39/18
f 10/47/19 22/41/19 24/19/19 11/18/19
f 23/6/20 21/5/20 20/20/20 24/19/20
f 13/32/21 19/38/21 21/5/21 14/8/21
f 22/9/22 16/12/22 18/7/22 23/6/22
f 17/2/23 15/1/23 14/8/23 18/7/23
f 1/21/24 13/32/24 15/34/24 2/22/24
f 16/35/25 5/24/25 4/3/25 17/2/25
f 7/26/26 19/38/26 13/32/26 1/21/26
